# xmcd CD database file
#
# Track frame offsets:
#	150
#	24993
#	40134
#	57835
#	74020
#	92047
#	107129
#	119811
#	135608
#	151874
#	173061
#	193933
#	210665
#	230311
#	242978
#	257753
#	275291
#	299671
#	320622
#	341519
#
# Disc length: 4715 seconds
#
# Revision: 2
# Processed by: cddbd v1.5.2PL0 Copyright (c) Steve Scherf et al.
# Submitted via: CDex 1.70beta2
#
DISCID=32126914
DTITLE=Various Artist - Line Dance Fever 14
DYEAR=2002
DGENRE=Country
TTITLE0=Chris Anderson and DJ Robbie - Last Night (Club Mix)
TTITLE1=Two In One - Mamma Afrika
TTITLE2=Roy Orbison - California Blue
TTITLE3=LeAnn Rimes - Can't Fight The Moonlight (Latino Mix)
TTITLE4=Kaci - Paradise (Metro Radio Edit)
TTITLE5=Liz Abella - Baila Baila
TTITLE6=Hal Ketchum - Don't Let Go
TTITLE7=Supersister - Coffee
TTITLE8=Alice Band - Nothing On But The Radio
TTITLE9=Big House - I Walk Alone
TTITLE10=Jo Dee Messina - Burn
TTITLE11=Newton - We're All Alone
TTITLE12=Natalie Powers - Music To My Heart
TTITLE13=Five - Inspector Gadget
TTITLE14=Jenai - Southside Stomp
TTITLE15=Steve Holy - Just A Kiss
TTITLE16=Mary Griffin - I Wanna Get Back With You (Almighty Mix)
TTITLE17=Ronnie McDowell - The Twist
TTITLE18=Moloko - Sing It Back (Boris Musical Mix Edit)
TTITLE19=Junior Brown - Ain't Gonna Work Today
EXTD=YEAR: 2002
EXTT0=
EXTT1=
EXTT2=
EXTT3=
EXTT4=
EXTT5=
EXTT6=
EXTT7=
EXTT8=
EXTT9=
EXTT10=
EXTT11=
EXTT12=
EXTT13=
EXTT14=
EXTT15=
EXTT16=
EXTT17=
EXTT18=
EXTT19=
PLAYORDER=
